<svg xmlns="http://www.w3.org/2000/svg" version="1.1" xmlns:xlink="http://www.w3.org/1999/xlink" xmlns:svgjs="http://svgjs.dev/svgjs" width="1500" height="1512" viewBox="0 0 1500 1512"><g transform="matrix(1,0,0,1,-2.5857778342863185,-2.4387096774194106)"><svg viewBox="0 0 246 248" data-background-color="#ffffff" preserveAspectRatio="xMidYMid meet" height="1512" width="1500" xmlns="http://www.w3.org/2000/svg" xmlns:xlink="http://www.w3.org/1999/xlink"><g id="tight-bounds" transform="matrix(1,0,0,1,0.4240675648229626,0.4000000000000057)"><svg viewBox="0 0 245.1518648703541 247.2" height="247.2" width="245.1518648703541"><g><svg viewBox="0 0 395.52 398.824394224804" height="247.2" width="245.1518648703541"><g transform="matrix(1,0,0,1,0,268.23591570063365)"><svg viewBox="0 0 395.52 130.58847852417037" height="130.58847852417037" width="395.52"><g id="textblocktransform"><svg viewBox="0 0 395.52 130.58847852417037" height="130.58847852417037" width="395.52" id="textblock"><g><svg viewBox="0 0 395.52 95.52479041916168" height="95.52479041916168" width="395.52"><g transform="matrix(1,0,0,1,0,0)"><svg width="395.52" viewBox="2.1 -35.55 150.29 36.3" height="95.52479041916168" data-palette-color="#3c2c32"><path d="M15.2-3.2L15.2-3.2Q19.25-3.2 23.35-7.1L23.35-7.1 24.05-6.45Q19.9-1.15 14.15 0.75L14.15 0.75Q8.15 0.75 5.13-3.03 2.1-6.8 2.1-13.48 2.1-20.15 5.78-25.88 9.45-31.6 15.65-33.3L15.65-33.3Q20.7-33.3 25.95-32.35L25.95-32.35 25.9-31.25Q24.6-31.25 23.5-30.8L23.5-30.8Q22.25-27.85 21.85-23.9L21.85-23.9 20.6-23.9Q20.15-25.9 20.15-28.55L20.15-28.55Q17.8-29.8 14.53-29.8 11.25-29.8 9.1-28L9.1-28Q6.55-23.65 6.55-16.95L6.55-16.95Q6.55-6.95 10.85-4.3L10.85-4.3Q12.65-3.2 15.2-3.2ZM27.4-8.8L27.4-8.8Q27.4-14 30.2-18.32 33-22.65 37.7-24.25L37.7-24.25Q41.05-24.25 44.7-23.2L44.7-23.2Q45.4-24.25 45.85-25.85L45.85-25.85 46.9-25.55Q45.8-21.05 45.8-9.65L45.8-9.65Q45.8-4.55 46.15-1.65L46.15-1.65Q47.35-1.25 48.85-1.25L48.85-1.25 48.85-0.2Q45.65-0.05 42.1 0.75L42.1 0.75 41.75 0.55Q42.3-2.9 42.3-7.25L42.3-7.25 42.1-7.3Q40.35-4.8 37.95-2.45 35.55-0.1 33.4 0.75L33.4 0.75Q30.65 0.75 29.02-2.3 27.4-5.35 27.4-8.8ZM31.4-11.05L31.4-11.05Q31.4-8.6 32.27-5.98 33.15-3.35 34.8-3.35L34.8-3.35Q36.55-3.35 39.05-5.85 41.55-8.35 42.3-10.35L42.3-10.35Q42.3-17.8 41.95-19.95L41.95-19.95Q39.3-21.15 36.82-21.15 34.35-21.15 33.05-19.95L33.05-19.95Q31.4-16.15 31.4-11.05ZM60-20.85L59.9-11.5Q59.9-10.05 59.9-6.93 59.9-3.8 60.2-1.5L60.2-1.5Q61.6-1.2 63.35-0.55L63.35-0.55 63.25 0.4Q60.45 0 57.95 0 55.45 0 52.9 0.3L52.9 0.3 52.75-0.65Q54.25-1.3 55.7-1.65L55.7-1.65Q56.15-4.85 56.2-11.5L56.2-11.5 56.3-20.85Q56.3-22.15 56.3-25.53 56.3-28.9 55.95-32.45L55.95-32.45Q54.65-32.85 53.25-32.85L53.25-32.85 53.25-33.9Q58.25-34.25 62.8-35.55L62.8-35.55 63.05-34.65Q62.1-33.9 60.7-33.2L60.7-33.2Q60.1-29.9 60-20.85L60-20.85ZM104.19-0.65L104.04 0.3Q101.64 0 99.97 0 98.29 0 96.89 0.1L96.89 0.1 96.89-0.6Q97.64-4.5 97.84-13.45L97.84-13.45Q97.84-13.85 97.84-14.25L97.84-14.25Q97.84-20.15 95.74-20.15L95.74-20.15Q93.94-20.15 91.34-17.7 88.74-15.25 87.84-13.15L87.84-13.15 87.64-1.55Q89.34-1.2 91.09-0.55L91.09-0.55 90.99 0.4Q88.19 0 86.44 0 84.69 0 83.29 0.1L83.29 0.1 83.29-0.6Q84.04-4.5 84.24-13.45L84.24-13.45Q84.24-13.85 84.24-14.25L84.24-14.25Q84.24-20.15 82.14-20.15L82.14-20.15Q80.34-20.15 77.77-17.7 75.19-15.25 74.29-13.15L74.29-13.15Q74.29-5.9 74.84-1.5L74.84-1.5Q76.19-1.2 77.99-0.55L77.99-0.55 77.89 0.4Q75.09 0 72.59 0 70.09 0 67.54 0.3L67.54 0.3 67.39-0.65Q68.89-1.3 70.34-1.65L70.34-1.65Q70.79-5.05 70.79-9.5L70.79-9.5 70.79-13.7Q70.79-18.3 70.44-21.85L70.44-21.85Q69.24-22.25 67.74-22.25L67.74-22.25 67.74-23.3Q70.94-23.45 74.49-24.25L74.49-24.25 74.84-24.05Q74.29-20.6 74.29-16.25L74.29-16.25 74.49-16.2Q76.09-18.55 78.69-21.03 81.29-23.5 83.39-24.25L83.39-24.25Q87.89-24.25 87.89-16.25L87.89-16.25 88.09-16.2Q89.69-18.55 92.29-21.03 94.89-23.5 96.99-24.25L96.99-24.25Q101.49-24.25 101.49-16.4L101.49-16.4Q101.49-16.05 101.49-15.7L101.49-15.7 101.24-1.65Q102.69-1.3 104.19-0.65L104.19-0.65ZM110.69-31.9L110.84-33.1Q116.54-32.55 122.74-32.55 128.94-32.55 134.64-33.1L134.64-33.1 134.84-31.85Q132.59-31.15 130.04-30.8L130.04-30.8Q129.39-26 129.39-16.28 129.39-6.55 130.04-1.75L130.04-1.75Q132.69-1.5 135.54-0.8L135.54-0.8 135.39 0.4Q131.69 0 127.37 0 123.04 0 120.39 0.4L120.39 0.4 120.19-0.85Q122.44-1.55 124.99-1.9L124.99-1.9Q125.39-5.2 125.54-12.55L125.54-12.55Q122.94-12.85 119.82-12.85 116.69-12.85 114.54-12.55L114.54-12.55Q113.34-7.65 113.34-4.7 113.34-1.75 115.49-0.5L115.49-0.5 115.29 0.2Q113.74 0 110.07 0 106.39 0 103.44 0.4L103.44 0.4 103.24-0.85Q105.49-1.55 108.04-1.9L108.04-1.9 116.24-30.95Q113.44-31.25 110.69-31.9L110.69-31.9ZM118.84-30.55L115.09-15.05Q117.34-14.7 120.42-14.7 123.49-14.7 125.54-15.05L125.54-15.05Q125.54-27.15 125.04-30.55L125.04-30.55Q123.49-30.7 121.97-30.7 120.44-30.7 118.84-30.55L118.84-30.55ZM146.79-30.8L146.79-30.8Q146.24-27.05 146.24-16.8 146.24-6.55 146.89-1.75L146.89-1.75Q149.54-1.5 152.39-0.8L152.39-0.8 152.24 0.4Q148.54 0 144.21 0 139.89 0 137.24 0.4L137.24 0.4 137.04-0.85Q139.29-1.55 141.84-1.9L141.84-1.9Q142.39-6 142.39-14.8L142.39-14.8 142.39-17.75Q142.39-25.85 141.74-30.65L141.74-30.65Q139.19-31 136.94-31.7L136.94-31.7 137.14-32.95Q139.79-32.55 144.11-32.55 148.44-32.55 152.14-32.95L152.14-32.95 152.29-31.75Q149.44-31.05 146.79-30.8Z" opacity="1" transform="matrix(1,0,0,1,0,0)" fill="#3c2c32" class="wordmark-text-0" data-fill-palette-color="primary" id="text-0"></path></svg></g></svg></g><g transform="matrix(1,0,0,1,75.54432,118.07590084215569)"><svg viewBox="0 0 244.43135999999998 12.512577682014681" height="12.512577682014681" width="244.43135999999998"><g transform="matrix(1,0,0,1,0,0)"><svg width="244.43135999999998" viewBox="3.8 -31.5 728.5300000000001 37.3" height="12.512577682014681" data-palette-color="#f9ad59"><path d="M16.05 0L3.8 0 3.8-29.55 16.05-29.55 16.05-28.75 4.6-28.75 4.6-15.95 13.5-15.95 13.5-15.15 4.6-15.15 4.6-0.8 16.05-0.8 16.05 0ZM21.5 0L20.7 0 20.7-24.75 21.4-24.75 21.5-22.25Q22.05-23.4 23.32-24.28 24.6-25.15 26.95-25.15L26.95-25.15Q29.9-25.15 31.1-24.08 32.3-23 32.65-21.5L32.65-21.5Q33.2-23.2 34.65-24.18 36.1-25.15 38.4-25.15L38.4-25.15Q40.5-25.15 41.72-24.58 42.95-24 43.5-23.03 44.05-22.05 44.2-20.9 44.35-19.75 44.35-18.6L44.35-18.6 44.35 0 43.55 0 43.55-18.15Q43.55-19.65 43.3-21.08 43.05-22.5 41.97-23.43 40.9-24.35 38.4-24.35L38.4-24.35Q35.65-24.35 34.37-22.75 33.1-21.15 32.9-18.6L32.9-18.6 32.9 0 32.1 0 32.1-18.15Q32.1-19.65 31.85-21.08 31.6-22.5 30.52-23.43 29.45-24.35 26.95-24.35L26.95-24.35Q24.2-24.35 22.95-22.98 21.7-21.6 21.5-19.45L21.5-19.45 21.5 0ZM51.6 5.8L50.8 5.8 50.8-24.75 51.5-24.75 51.6-22.25Q51.85-23.25 53.02-24.2 54.2-25.15 56.8-25.15L56.8-25.15Q58.9-25.15 60.12-24.58 61.35-24 61.9-23.03 62.45-22.05 62.6-20.9 62.75-19.75 62.75-18.6L62.75-18.6 62.75-6.2Q62.75-4.65 62.45-3.15 62.15-1.65 60.9-0.65 59.65 0.35 56.8 0.35L56.8 0.35Q54.3 0.35 53.1-0.38 51.9-1.1 51.6-1.9L51.6-1.9 51.6 5.8ZM56.8-0.45L56.8-0.45Q58.75-0.45 59.8-1 60.85-1.55 61.3-2.43 61.75-3.3 61.85-4.33 61.95-5.35 61.95-6.35L61.95-6.35 61.95-18.45Q61.95-19.95 61.72-21.3 61.5-22.65 60.45-23.5 59.4-24.35 56.8-24.35L56.8-24.35Q54.4-24.35 53.3-23.48 52.2-22.6 51.9-21.2 51.6-19.8 51.6-18.15L51.6-18.15 51.6-6.35Q51.6-5.35 51.7-4.33 51.8-3.3 52.25-2.43 52.7-1.55 53.77-1 54.85-0.45 56.8-0.45ZM74.64 0.35L74.64 0.35Q72.49 0.35 71.27-0.23 70.04-0.8 69.49-1.75 68.94-2.7 68.79-3.88 68.64-5.05 68.64-6.2L68.64-6.2 68.64-18.6Q68.64-19.75 68.79-20.9 68.94-22.05 69.52-23.03 70.09-24 71.34-24.58 72.59-25.15 74.84-25.15L74.84-25.15Q77.59-25.15 78.84-24.15 80.09-23.15 80.47-21.65 80.84-20.15 80.84-18.6L80.84-18.6 80.84-6.2Q80.84-4.65 80.47-3.15 80.09-1.65 78.79-0.65 77.49 0.35 74.64 0.35ZM74.64-0.45L74.64-0.45Q77.24-0.45 78.37-1.38 79.49-2.3 79.77-3.68 80.04-5.05 80.04-6.35L80.04-6.35 80.04-18.45Q80.04-19.8 79.77-21.15 79.49-22.5 78.42-23.43 77.34-24.35 74.84-24.35L74.84-24.35Q72.84-24.35 71.72-23.8 70.59-23.25 70.12-22.38 69.64-21.5 69.54-20.48 69.44-19.45 69.44-18.45L69.44-18.45 69.44-6.35Q69.44-5.35 69.54-4.33 69.64-3.3 70.09-2.43 70.54-1.55 71.62-1 72.69-0.45 74.64-0.45ZM91.39 0L90.49 0 84.49-24.75 85.29-24.75 90.94-1.35 96.64-24.75 97.44-24.75 103.09-1.35 108.79-24.75 109.59-24.75 103.54 0 102.64 0 97.04-23.1 91.39 0ZM119.24 0.35L119.24 0.35Q117.09 0.35 115.86-0.23 114.64-0.8 114.09-1.75 113.54-2.7 113.39-3.88 113.24-5.05 113.24-6.2L113.24-6.2 113.24-18.6Q113.24-20.15 113.59-21.65 113.94-23.15 115.21-24.15 116.49-25.15 119.24-25.15L119.24-25.15Q122.04-25.15 123.29-24.2 124.54-23.25 124.86-21.75 125.19-20.25 125.19-18.6L125.19-18.6 125.19-13.15 114.04-13.15 114.04-6.35Q114.04-4.9 114.31-3.53 114.59-2.15 115.69-1.3 116.79-0.45 119.24-0.45L119.24-0.45Q121.69-0.45 122.76-1.3 123.84-2.15 124.11-3.5 124.39-4.85 124.39-6.35L124.39-6.35 124.39-8.35 125.19-8.35 125.19-6.2Q125.19-4.65 124.89-3.15 124.59-1.65 123.34-0.65 122.09 0.35 119.24 0.35ZM114.04-18.15L114.04-13.95 124.39-13.95 124.39-18.15Q124.39-19.9 124.14-21.3 123.89-22.7 122.81-23.53 121.74-24.35 119.24-24.35L119.24-24.35Q117.04-24.35 115.91-23.58 114.79-22.8 114.41-21.43 114.04-20.05 114.04-18.15L114.04-18.15ZM132.24 0L131.44 0 131.44-24.75 132.14-24.75 132.24-22.25Q132.79-23.4 134.06-24.28 135.34-25.15 137.69-25.15L137.69-25.15Q138.74-25.15 139.54-25L139.54-25 139.54-24.2Q138.74-24.35 137.69-24.35L137.69-24.35Q134.94-24.35 133.59-22.9 132.24-21.45 132.24-19.45L132.24-19.45 132.24 0ZM143.68 0L142.88 0 142.88-24.75 143.68-24.75 143.68 0ZM143.28-28.3L143.28-28.3Q142.58-28.3 142.58-29L142.58-29Q142.58-29.7 143.28-29.7L143.28-29.7Q143.98-29.7 143.98-29L143.98-29Q143.98-28.3 143.28-28.3ZM151.28 0L150.48 0 150.48-24.75 151.18-24.75 151.28-22.15Q151.83-23.3 153.11-24.23 154.38-25.15 156.73-25.15L156.73-25.15Q158.83-25.15 160.06-24.58 161.28-24 161.83-23.03 162.38-22.05 162.53-20.9 162.68-19.75 162.68-18.6L162.68-18.6 162.68 0 161.88 0 161.88-18.15Q161.88-19.65 161.63-21.08 161.38-22.5 160.31-23.43 159.23-24.35 156.73-24.35L156.73-24.35Q153.98-24.35 152.63-22.85 151.28-21.35 151.28-19.2L151.28-19.2 151.28 0ZM174.53 5.75L174.53 5.75Q173.43 5.75 172.55 5.68 171.68 5.6 171.33 5.55L171.33 5.55 171.33 4.7Q172.68 4.95 174.53 4.95L174.53 4.95Q175.88 4.95 177.08 4.53 178.28 4.1 179.05 2.98 179.83 1.85 179.83-0.15L179.83-0.15 179.83-3.8Q179.43-2.8 178.05-1.95 176.68-1.1 174.63-1.1L174.63-1.1Q171.83-1.1 170.55-2.1 169.28-3.1 168.98-4.6 168.68-6.1 168.68-7.65L168.68-7.65 168.68-18.6Q168.68-19.75 168.83-20.9 168.98-22.05 169.53-23.03 170.08-24 171.3-24.58 172.53-25.15 174.63-25.15L174.63-25.15Q176.38-25.15 177.43-24.78 178.48-24.4 179.05-23.95 179.63-23.5 179.83-23.3L179.83-23.3 179.98-24.75 180.63-24.75 180.63-0.25Q180.63 2.6 179.13 4.17 177.63 5.75 174.53 5.75ZM174.63-1.9L174.63-1.9Q176.73-1.9 177.85-2.73 178.98-3.55 179.4-4.9 179.83-6.25 179.83-7.8L179.83-7.8 179.83-21.85Q179.68-22.2 179.25-22.78 178.83-23.35 177.75-23.85 176.68-24.35 174.63-24.35L174.63-24.35Q172.68-24.35 171.63-23.8 170.58-23.25 170.13-22.38 169.68-21.5 169.58-20.48 169.48-19.45 169.48-18.45L169.48-18.45 169.48-7.8Q169.48-6.8 169.58-5.78 169.68-4.75 170.13-3.88 170.58-3 171.63-2.45 172.68-1.9 174.63-1.9ZM195.97 0L195.17 0 195.17-24.75 195.87-24.75 195.97-22.25Q196.52-23.4 197.8-24.28 199.07-25.15 201.42-25.15L201.42-25.15Q204.37-25.15 205.57-24.08 206.77-23 207.12-21.5L207.12-21.5Q207.67-23.2 209.12-24.18 210.57-25.15 212.87-25.15L212.87-25.15Q214.97-25.15 216.2-24.58 217.42-24 217.97-23.03 218.52-22.05 218.67-20.9 218.82-19.75 218.82-18.6L218.82-18.6 218.82 0 218.02 0 218.02-18.15Q218.02-19.65 217.77-21.08 217.52-22.5 216.45-23.43 215.37-24.35 212.87-24.35L212.87-24.35Q210.12-24.35 208.85-22.75 207.57-21.15 207.37-18.6L207.37-18.6 207.37 0 206.57 0 206.57-18.15Q206.57-19.65 206.32-21.08 206.07-22.5 205-23.43 203.92-24.35 201.42-24.35L201.42-24.35Q198.67-24.35 197.42-22.98 196.17-21.6 195.97-19.45L195.97-19.45 195.97 0ZM230.82 0.35L230.82 0.35Q228.67 0.35 227.45-0.23 226.22-0.8 225.67-1.75 225.12-2.7 224.97-3.88 224.82-5.05 224.82-6.2L224.82-6.2 224.82-18.6Q224.82-20.15 225.17-21.65 225.52-23.15 226.8-24.15 228.07-25.15 230.82-25.15L230.82-25.15Q233.62-25.15 234.87-24.2 236.12-23.25 236.45-21.75 236.77-20.25 236.77-18.6L236.77-18.6 236.77-13.15 225.62-13.15 225.62-6.35Q225.62-4.9 225.9-3.53 226.17-2.15 227.27-1.3 228.37-0.45 230.82-0.45L230.82-0.45Q233.27-0.45 234.35-1.3 235.42-2.15 235.7-3.5 235.97-4.85 235.97-6.35L235.97-6.35 235.97-8.35 236.77-8.35 236.77-6.2Q236.77-4.65 236.47-3.15 236.17-1.65 234.92-0.65 233.67 0.35 230.82 0.35ZM225.62-18.15L225.62-13.95 235.97-13.95 235.97-18.15Q235.97-19.9 235.72-21.3 235.47-22.7 234.4-23.53 233.32-24.35 230.82-24.35L230.82-24.35Q228.62-24.35 227.5-23.58 226.37-22.8 226-21.43 225.62-20.05 225.62-18.15L225.62-18.15ZM243.82 0L243.02 0 243.02-24.75 243.72-24.75 243.82-22.15Q244.37-23.3 245.64-24.23 246.92-25.15 249.27-25.15L249.27-25.15Q251.37-25.15 252.59-24.58 253.82-24 254.37-23.03 254.92-22.05 255.07-20.9 255.22-19.75 255.22-18.6L255.22-18.6 255.22 0 254.42 0 254.42-18.15Q254.42-19.65 254.17-21.08 253.92-22.5 252.84-23.43 251.77-24.35 249.27-24.35L249.27-24.35Q246.52-24.35 245.17-22.85 243.82-21.35 243.82-19.2L243.82-19.2 243.82 0ZM265.32 0L265.32 0Q263.37 0 262.52-1.18 261.67-2.35 261.67-4.65L261.67-4.65 261.67-23.95 259.77-23.95 259.77-24.65 261.67-24.75 261.82-29.6 262.47-29.6 262.47-24.75 268.27-24.75 268.27-23.95 262.47-23.95 262.47-4.4Q262.47-3 263.02-1.88 263.57-0.75 265.27-0.75L265.27-0.75Q265.97-0.75 266.67-0.83 267.37-0.9 268.27-1L268.27-1 268.27-0.2Q267.92-0.15 267.09-0.08 266.27 0 265.32 0ZM276.61 0.2L276.61 0.2Q275.46 0.2 274.24-0.2 273.01-0.6 272.16-1.83 271.31-3.05 271.31-5.6L271.31-5.6 271.31-7.3Q271.31-8.9 272.04-10.1 272.76-11.3 273.79-12.13 274.81-12.95 275.79-13.48 276.76-14 277.21-14.25L277.21-14.25Q279.21-15.35 280.34-16.18 281.46-17 281.96-17.88 282.46-18.75 282.46-20L282.46-20 282.46-20.7Q282.46-22.4 281.74-23.15 281.01-23.9 279.91-24.1 278.81-24.3 277.66-24.3L277.66-24.3Q275.46-24.3 274.39-23.55 273.31-22.8 272.99-21.55 272.66-20.3 272.66-18.75L272.66-18.75 272.66-16.7 271.86-16.7 271.86-18.85Q271.86-21.75 273.01-23.43 274.16-25.1 277.66-25.1L277.66-25.1Q280.36-25.1 281.54-24.4 282.71-23.7 282.99-22.58 283.26-21.45 283.26-20.1L283.26-20.1 283.26 0 282.51 0 282.51-3.65Q281.91-1.9 280.39-0.85 278.86 0.2 276.61 0.2ZM276.76-0.6L276.76-0.6Q278.96-0.6 280.19-1.55 281.41-2.5 281.94-4.15 282.46-5.8 282.46-7.85L282.46-7.85 282.46-17.05Q281.66-15.95 280.29-15.13 278.91-14.3 277.46-13.45L277.46-13.45Q276.21-12.75 274.99-11.98 273.76-11.2 272.94-10 272.11-8.8 272.11-6.9L272.11-6.9 272.11-5.6Q272.11-3.25 272.86-2.2 273.61-1.15 274.71-0.88 275.81-0.6 276.76-0.6ZM290.51 0L289.71 0 289.71-31.5 290.51-31.5 290.51 0ZM309.51 0L308.61 0 302.61-24.75 303.41-24.75 309.06-1.35 314.76-24.75 315.56-24.75 321.21-1.35 326.91-24.75 327.71-24.75 321.66 0 320.76 0 315.16-23.1 309.51 0ZM337.35 0.35L337.35 0.35Q335.2 0.35 333.98-0.23 332.75-0.8 332.2-1.75 331.65-2.7 331.5-3.88 331.35-5.05 331.35-6.2L331.35-6.2 331.35-18.6Q331.35-20.15 331.7-21.65 332.05-23.15 333.33-24.15 334.6-25.15 337.35-25.15L337.35-25.15Q340.15-25.15 341.4-24.2 342.65-23.25 342.98-21.75 343.3-20.25 343.3-18.6L343.3-18.6 343.3-13.15 332.15-13.15 332.15-6.35Q332.15-4.9 332.43-3.53 332.7-2.15 333.8-1.3 334.9-0.45 337.35-0.45L337.35-0.45Q339.8-0.45 340.88-1.3 341.95-2.15 342.23-3.5 342.5-4.85 342.5-6.35L342.5-6.35 342.5-8.35 343.3-8.35 343.3-6.2Q343.3-4.65 343-3.15 342.7-1.65 341.45-0.65 340.2 0.35 337.35 0.35ZM332.15-18.15L332.15-13.95 342.5-13.95 342.5-18.15Q342.5-19.9 342.25-21.3 342-22.7 340.93-23.53 339.85-24.35 337.35-24.35L337.35-24.35Q335.15-24.35 334.03-23.58 332.9-22.8 332.53-21.43 332.15-20.05 332.15-18.15L332.15-18.15ZM350.35 0L349.55 0 349.55-31.5 350.35-31.5 350.35 0ZM357.95 0L357.15 0 357.15-31.5 357.95-31.5 357.95 0ZM372.55-12.2L363.6-12.2 363.6-13 372.55-13 372.55-12.2ZM384.19 0.35L384.19 0.35Q381.69 0.35 380.59-0.43 379.49-1.2 378.99-2.35L378.99-2.35 378.89 0 378.19 0 378.19-31.5 378.99-31.5 378.99-22.45Q379.49-23.55 380.67-24.35 381.84-25.15 384.19-25.15L384.19-25.15Q386.29-25.15 387.52-24.58 388.74-24 389.29-23.03 389.84-22.05 389.99-20.9 390.14-19.75 390.14-18.6L390.14-18.6 390.14-6.2Q390.14-4.65 389.84-3.15 389.54-1.65 388.29-0.65 387.04 0.35 384.19 0.35ZM384.19-0.45L384.19-0.45Q386.64-0.45 387.72-1.38 388.79-2.3 389.07-3.75 389.34-5.2 389.34-6.65L389.34-6.65 389.34-18.45Q389.34-19.8 389.07-21.15 388.79-22.5 387.72-23.43 386.64-24.35 384.19-24.35L384.19-24.35Q381.14-24.35 380.07-22.6 378.99-20.85 378.99-18.3L378.99-18.3 378.99-6.65Q378.99-5.2 379.22-3.75 379.44-2.3 380.52-1.38 381.59-0.45 384.19-0.45ZM402.04 0.35L402.04 0.35Q399.89 0.35 398.67-0.23 397.44-0.8 396.89-1.75 396.34-2.7 396.19-3.88 396.04-5.05 396.04-6.2L396.04-6.2 396.04-18.6Q396.04-20.15 396.39-21.65 396.74-23.15 398.02-24.15 399.29-25.15 402.04-25.15L402.04-25.15Q404.84-25.15 406.09-24.2 407.34-23.25 407.67-21.75 407.99-20.25 407.99-18.6L407.99-18.6 407.99-13.15 396.84-13.15 396.84-6.35Q396.84-4.9 397.12-3.53 397.39-2.15 398.49-1.3 399.59-0.45 402.04-0.45L402.04-0.45Q404.49-0.45 405.57-1.3 406.64-2.15 406.92-3.5 407.19-4.85 407.19-6.35L407.19-6.35 407.19-8.35 407.99-8.35 407.99-6.2Q407.99-4.65 407.69-3.15 407.39-1.65 406.14-0.65 404.89 0.35 402.04 0.35ZM396.84-18.15L396.84-13.95 407.19-13.95 407.19-18.15Q407.19-19.9 406.94-21.3 406.69-22.7 405.62-23.53 404.54-24.35 402.04-24.35L402.04-24.35Q399.84-24.35 398.72-23.58 397.59-22.8 397.22-21.43 396.84-20.05 396.84-18.15L396.84-18.15ZM415.04 0L414.24 0 414.24-24.75 415.04-24.75 415.04 0ZM414.64-28.3L414.64-28.3Q413.94-28.3 413.94-29L413.94-29Q413.94-29.7 414.64-29.7L414.64-29.7Q415.34-29.7 415.34-29L415.34-29Q415.34-28.3 414.64-28.3ZM422.64 0L421.84 0 421.84-24.75 422.54-24.75 422.64-22.15Q423.19-23.3 424.46-24.23 425.74-25.15 428.09-25.15L428.09-25.15Q430.19-25.15 431.41-24.58 432.64-24 433.19-23.03 433.74-22.05 433.89-20.9 434.04-19.75 434.04-18.6L434.04-18.6 434.04 0 433.24 0 433.24-18.15Q433.24-19.65 432.99-21.08 432.74-22.5 431.66-23.43 430.59-24.35 428.09-24.35L428.09-24.35Q425.34-24.35 423.99-22.85 422.64-21.35 422.64-19.2L422.64-19.2 422.64 0ZM445.88 5.75L445.88 5.75Q444.78 5.75 443.91 5.68 443.03 5.6 442.68 5.55L442.68 5.55 442.68 4.7Q444.03 4.95 445.88 4.95L445.88 4.95Q447.23 4.95 448.43 4.53 449.63 4.1 450.41 2.98 451.18 1.85 451.18-0.15L451.18-0.15 451.18-3.8Q450.78-2.8 449.41-1.95 448.03-1.1 445.98-1.1L445.98-1.1Q443.18-1.1 441.91-2.1 440.63-3.1 440.33-4.6 440.03-6.1 440.03-7.65L440.03-7.65 440.03-18.6Q440.03-19.75 440.18-20.9 440.33-22.05 440.88-23.03 441.43-24 442.66-24.58 443.88-25.15 445.98-25.15L445.98-25.15Q447.73-25.15 448.78-24.78 449.83-24.4 450.41-23.95 450.98-23.5 451.18-23.3L451.18-23.3 451.33-24.75 451.98-24.75 451.98-0.25Q451.98 2.6 450.48 4.17 448.98 5.75 445.88 5.75ZM445.98-1.9L445.98-1.9Q448.08-1.9 449.21-2.73 450.33-3.55 450.76-4.9 451.18-6.25 451.18-7.8L451.18-7.8 451.18-21.85Q451.03-22.2 450.61-22.78 450.18-23.35 449.11-23.85 448.03-24.35 445.98-24.35L445.98-24.35Q444.03-24.35 442.98-23.8 441.93-23.25 441.48-22.38 441.03-21.5 440.93-20.48 440.83-19.45 440.83-18.45L440.83-18.45 440.83-7.8Q440.83-6.8 440.93-5.78 441.03-4.75 441.48-3.88 441.93-3 442.98-2.45 444.03-1.9 445.98-1.9ZM470.98 0L470.08 0 464.08-24.75 464.88-24.75 470.53-1.35 476.23-24.75 477.03-24.75 482.68-1.35 488.38-24.75 489.18-24.75 483.13 0 482.23 0 476.63-23.1 470.98 0ZM494.33 0L493.53 0 493.53-24.75 494.33-24.75 494.33 0ZM493.93-28.3L493.93-28.3Q493.23-28.3 493.23-29L493.23-29Q493.23-29.7 493.93-29.7L493.93-29.7Q494.63-29.7 494.63-29L494.63-29Q494.63-28.3 493.93-28.3ZM504.77 0L504.77 0Q502.82 0 501.97-1.18 501.12-2.35 501.12-4.65L501.12-4.65 501.12-23.95 499.22-23.95 499.22-24.65 501.12-24.75 501.27-29.6 501.92-29.6 501.92-24.75 507.72-24.75 507.72-23.95 501.92-23.95 501.92-4.4Q501.92-3 502.47-1.88 503.02-0.75 504.72-0.75L504.72-0.75Q505.42-0.75 506.12-0.83 506.82-0.9 507.72-1L507.72-1 507.72-0.2Q507.37-0.15 506.55-0.08 505.72 0 504.77 0ZM512.52 0L511.72 0 511.72-31.5 512.52-31.5 512.52-22.25Q513.07-23.4 514.35-24.28 515.62-25.15 517.97-25.15L517.97-25.15Q520.07-25.15 521.3-24.58 522.52-24 523.07-23.03 523.62-22.05 523.77-20.9 523.92-19.75 523.92-18.6L523.92-18.6 523.92 0 523.12 0 523.12-18.15Q523.12-19.65 522.87-21.08 522.62-22.5 521.55-23.43 520.47-24.35 517.97-24.35L517.97-24.35Q515.22-24.35 513.97-22.98 512.72-21.6 512.52-19.45L512.52-19.45 512.52 0ZM536.82 0L535.97 0 543.52-29.55 544.17-29.55 551.72 0 550.87 0 548.87-8 538.77-8 536.82 0ZM543.67-26.6L538.97-8.8 548.67-8.8 544.07-26.6 543.87-27.45 543.67-26.6ZM557.56 0L556.76 0 556.76-29.55 557.56-29.55 557.56 0ZM576.16 0L576.16 0Q574.21 0 573.36-1.18 572.51-2.35 572.51-4.65L572.51-4.65 572.51-23.95 570.61-23.95 570.61-24.65 572.51-24.75 572.66-29.6 573.31-29.6 573.31-24.75 579.11-24.75 579.11-23.95 573.31-23.95 573.31-4.4Q573.31-3 573.86-1.88 574.41-0.75 576.11-0.75L576.11-0.75Q576.81-0.75 577.51-0.83 578.21-0.9 579.11-1L579.11-1 579.11-0.2Q578.76-0.15 577.93-0.08 577.11 0 576.16 0ZM588.65 0.35L588.65 0.35Q586.5 0.35 585.28-0.23 584.05-0.8 583.5-1.75 582.95-2.7 582.8-3.88 582.65-5.05 582.65-6.2L582.65-6.2 582.65-18.6Q582.65-20.15 583-21.65 583.35-23.15 584.63-24.15 585.9-25.15 588.65-25.15L588.65-25.15Q591.45-25.15 592.7-24.2 593.95-23.25 594.28-21.75 594.6-20.25 594.6-18.6L594.6-18.6 594.6-13.15 583.45-13.15 583.45-6.35Q583.45-4.9 583.73-3.53 584-2.15 585.1-1.3 586.2-0.45 588.65-0.45L588.65-0.45Q591.1-0.45 592.18-1.3 593.25-2.15 593.53-3.5 593.8-4.85 593.8-6.35L593.8-6.35 593.8-8.35 594.6-8.35 594.6-6.2Q594.6-4.65 594.3-3.15 594-1.65 592.75-0.65 591.5 0.35 588.65 0.35ZM583.45-18.15L583.45-13.95 593.8-13.95 593.8-18.15Q593.8-19.9 593.55-21.3 593.3-22.7 592.23-23.53 591.15-24.35 588.65-24.35L588.65-24.35Q586.45-24.35 585.33-23.58 584.2-22.8 583.83-21.43 583.45-20.05 583.45-18.15L583.45-18.15ZM606.4 0.35L606.4 0.35Q604.25 0.35 603.03-0.23 601.8-0.8 601.25-1.75 600.7-2.7 600.55-3.88 600.4-5.05 600.4-6.2L600.4-6.2 600.4-18.6Q600.4-19.75 600.55-20.9 600.7-22.05 601.25-23.03 601.8-24 603.03-24.58 604.25-25.15 606.4-25.15L606.4-25.15Q608.5-25.15 609.73-24.58 610.95-24 611.5-23.03 612.05-22.05 612.2-20.9 612.35-19.75 612.35-18.6L612.35-18.6 612.35-16.4 611.55-16.4 611.55-18.45Q611.55-19.8 611.28-21.15 611-22.5 609.93-23.43 608.85-24.35 606.4-24.35L606.4-24.35Q603.95-24.35 602.85-23.43 601.75-22.5 601.48-21.15 601.2-19.8 601.2-18.45L601.2-18.45 601.2-6.35Q601.2-5.05 601.48-3.68 601.75-2.3 602.85-1.38 603.95-0.45 606.4-0.45L606.4-0.45Q608.85-0.45 609.93-1.38 611-2.3 611.28-3.68 611.55-5.05 611.55-6.35L611.55-6.35 611.55-8.35 612.35-8.35 612.35-6.2Q612.35-4.65 612.05-3.15 611.75-1.65 610.5-0.65 609.25 0.35 606.4 0.35ZM618.9 0L618.1 0 618.1-31.5 618.9-31.5 618.9-22.25Q619.45-23.4 620.72-24.28 622-25.15 624.35-25.15L624.35-25.15Q626.45-25.15 627.67-24.58 628.9-24 629.45-23.03 630-22.05 630.15-20.9 630.3-19.75 630.3-18.6L630.3-18.6 630.3 0 629.5 0 629.5-18.15Q629.5-19.65 629.25-21.08 629-22.5 627.92-23.43 626.85-24.35 624.35-24.35L624.35-24.35Q621.6-24.35 620.35-22.98 619.1-21.6 618.9-19.45L618.9-19.45 618.9 0ZM637.55 0L636.75 0 636.75-24.75 637.45-24.75 637.55-22.15Q638.1-23.3 639.37-24.23 640.65-25.15 643-25.15L643-25.15Q645.1-25.15 646.32-24.58 647.55-24 648.1-23.03 648.65-22.05 648.8-20.9 648.95-19.75 648.95-18.6L648.95-18.6 648.95 0 648.15 0 648.15-18.15Q648.15-19.65 647.9-21.08 647.65-22.5 646.57-23.43 645.5-24.35 643-24.35L643-24.35Q640.25-24.35 638.9-22.85 637.55-21.35 637.55-19.2L637.55-19.2 637.55 0ZM660.94 0.35L660.94 0.35Q658.79 0.35 657.57-0.23 656.34-0.8 655.79-1.75 655.24-2.7 655.09-3.88 654.94-5.05 654.94-6.2L654.94-6.2 654.94-18.6Q654.94-19.75 655.09-20.9 655.24-22.05 655.82-23.03 656.39-24 657.64-24.58 658.89-25.15 661.14-25.15L661.14-25.15Q663.89-25.15 665.14-24.15 666.39-23.15 666.77-21.65 667.14-20.15 667.14-18.6L667.14-18.6 667.14-6.2Q667.14-4.65 666.77-3.15 666.39-1.65 665.09-0.65 663.79 0.35 660.94 0.35ZM660.94-0.45L660.94-0.45Q663.54-0.45 664.67-1.38 665.79-2.3 666.07-3.68 666.34-5.05 666.34-6.35L666.34-6.35 666.34-18.45Q666.34-19.8 666.07-21.15 665.79-22.5 664.72-23.43 663.64-24.35 661.14-24.35L661.14-24.35Q659.14-24.35 658.02-23.8 656.89-23.25 656.42-22.38 655.94-21.5 655.84-20.48 655.74-19.45 655.74-18.45L655.74-18.45 655.74-6.35Q655.74-5.35 655.84-4.33 655.94-3.3 656.39-2.43 656.84-1.55 657.92-1 658.99-0.45 660.94-0.45ZM674.29 0L673.49 0 673.49-31.5 674.29-31.5 674.29 0ZM686.64 0.35L686.64 0.35Q684.49 0.35 683.26-0.23 682.04-0.8 681.49-1.75 680.94-2.7 680.79-3.88 680.64-5.05 680.64-6.2L680.64-6.2 680.64-18.6Q680.64-19.75 680.79-20.9 680.94-22.05 681.51-23.03 682.09-24 683.34-24.58 684.59-25.15 686.84-25.15L686.84-25.15Q689.59-25.15 690.84-24.15 692.09-23.15 692.46-21.65 692.84-20.15 692.84-18.6L692.84-18.6 692.84-6.2Q692.84-4.65 692.46-3.15 692.09-1.65 690.79-0.65 689.49 0.35 686.64 0.35ZM686.64-0.45L686.64-0.45Q689.24-0.45 690.36-1.38 691.49-2.3 691.76-3.68 692.04-5.05 692.04-6.35L692.04-6.35 692.04-18.45Q692.04-19.8 691.76-21.15 691.49-22.5 690.41-23.43 689.34-24.35 686.84-24.35L686.84-24.35Q684.84-24.35 683.71-23.8 682.59-23.25 682.11-22.38 681.64-21.5 681.54-20.48 681.44-19.45 681.44-18.45L681.44-18.45 681.44-6.35Q681.44-5.35 681.54-4.33 681.64-3.3 682.09-2.43 682.54-1.55 683.61-1 684.69-0.45 686.64-0.45ZM704.59 5.75L704.59 5.75Q703.49 5.75 702.61 5.68 701.74 5.6 701.39 5.55L701.39 5.55 701.39 4.7Q702.74 4.95 704.59 4.95L704.59 4.95Q705.94 4.95 707.14 4.53 708.34 4.1 709.11 2.98 709.89 1.85 709.89-0.15L709.89-0.15 709.89-3.8Q709.49-2.8 708.11-1.95 706.74-1.1 704.69-1.1L704.69-1.1Q701.89-1.1 700.61-2.1 699.34-3.1 699.04-4.6 698.74-6.1 698.74-7.65L698.74-7.65 698.74-18.6Q698.74-19.75 698.89-20.9 699.04-22.05 699.59-23.03 700.14-24 701.36-24.58 702.59-25.15 704.69-25.15L704.69-25.15Q706.44-25.15 707.49-24.78 708.54-24.4 709.11-23.95 709.69-23.5 709.89-23.3L709.89-23.3 710.04-24.75 710.69-24.75 710.69-0.25Q710.69 2.6 709.19 4.17 707.69 5.75 704.59 5.75ZM704.69-1.9L704.69-1.9Q706.79-1.9 707.91-2.73 709.04-3.55 709.46-4.9 709.89-6.25 709.89-7.8L709.89-7.8 709.89-21.85Q709.74-22.2 709.31-22.78 708.89-23.35 707.81-23.85 706.74-24.35 704.69-24.35L704.69-24.35Q702.74-24.35 701.69-23.8 700.64-23.25 700.19-22.38 699.74-21.5 699.64-20.48 699.54-19.45 699.54-18.45L699.54-18.45 699.54-7.8Q699.54-6.8 699.64-5.78 699.74-4.75 700.19-3.88 700.64-3 701.69-2.45 702.74-1.9 704.69-1.9ZM716.73 5.75L716.73 5.75Q715.98 5.75 715.18 5.63 714.38 5.5 714.28 5.45L714.28 5.45 714.28 4.75Q714.38 4.8 715.13 4.93 715.88 5.05 716.73 5.05L716.73 5.05Q717.53 5.05 718.41 4.65 719.28 4.25 720.06 3.2 720.83 2.15 721.13 0.2L721.13 0.2 715.08-24.75 715.88-24.75 721.53-1.35 727.23-24.75 728.03-24.75 721.98 0.05Q721.33 2.65 720.16 4.2 718.98 5.75 716.73 5.75ZM731.53 0.15L731.53 0.15Q730.73 0.15 730.73-0.65L730.73-0.65Q730.73-1.45 731.53-1.45L731.53-1.45Q732.33-1.45 732.33-0.65L732.33-0.65Q732.33 0.15 731.53 0.15Z" opacity="1" transform="matrix(1,0,0,1,0,0)" fill="#f9ad59" class="slogan-text-1" data-fill-palette-color="secondary" id="text-1"></path></svg></g></svg></g></svg></g></svg></g><g transform="matrix(1,0,0,1,86.19315257267716,0)"><svg viewBox="0 0 223.13369485464565 223.13369485464565" height="223.13369485464565" width="223.13369485464565"><g><svg></svg></g><g id="icon-0"><svg viewBox="0 0 223.13369485464565 223.13369485464565" height="223.13369485464565" width="223.13369485464565"><g><path d="M0 111.567c0-61.617 49.95-111.567 111.567-111.567 61.617 0 111.567 49.95 111.567 111.567 0 61.617-49.95 111.567-111.567 111.567-61.617 0-111.567-49.95-111.567-111.567zM111.567 214.519c56.859 0 102.952-46.093 102.952-102.952 0-56.859-46.093-102.952-102.952-102.952-56.859 0-102.952 46.093-102.952 102.952 0 56.859 46.093 102.952 102.952 102.952z" data-fill-palette-color="accent" fill="#fbb168" stroke="transparent"></path><ellipse rx="110.45117895304959" ry="110.45117895304959" cx="111.56684742732283" cy="111.56684742732283" fill="#fbb168" stroke="transparent" stroke-width="0" fill-opacity="1" data-fill-palette-color="accent"></ellipse></g><g transform="matrix(1,0,0,1,50.855867352395336,50.93637183023169)"><svg viewBox="0 0 121.42196014985498 121.26095119418227" height="121.26095119418227" width="121.42196014985498"><g><svg xmlns="http://www.w3.org/2000/svg" xmlns:xlink="http://www.w3.org/1999/xlink" version="1.1" x="0" y="0" viewBox="21.121 21.16 57.7575881966181 57.681" enable-background="new 0 0 100 100" xml:space="preserve" height="121.26095119418227" width="121.42196014985498" class="icon-dxe-0" data-fill-palette-color="quaternary" id="dxe-0"><g fill="#ffffff" data-fill-palette-color="quaternary"><path d="M73.525 24.311C72.603 23.493 71.225 23.611 70.441 24.486A2.15 2.15 0 0 0 70.616 27.567C75.222 31.905 75.838 37.858 71.626 42.574 67.598 47.08 61.135 47.764 56.379 43.512 51.744 39.374 51.857 32.278 55.939 28.043 56.879 27.077 58.189 25.699 56.564 24.243 55.095 22.936 53.544 24.174 52.502 25.343 46.686 31.856 47.042 41.031 53.471 46.771 56.701 49.653 60.615 50.966 64.449 50.728 65.905 51.109 67.343 52.14 67.343 53.937 67.343 56.005 65.999 57.576 63.759 59.197 59.175 62.388 55.199 65.24 55.199 70.222 55.199 74.363 57.999 78.841 65.271 78.841 68.518 78.841 72.327 76.206 72.549 72.905 72.602 71.675 71.539 70.669 70.308 70.669 69.358 70.669 68.855 71.06 68.402 71.899 67.677 73.465 66.055 74.528 64.209 74.528 61.746 74.528 59.562 72.628 59.562 70.221 59.562 67.364 61.356 65.852 64.603 63.614 68.634 60.874 71.709 58.358 71.709 53.936 71.709 52.139 70.975 50.559 69.858 49.302 71.677 48.424 73.389 47.156 74.883 45.484 80.916 38.714 79.838 30.176 73.525 24.311" fill="#ffffff" data-fill-palette-color="quaternary"></path><path d="M57.247 26.095C55.907 26.095 54.785 24.977 54.785 23.633S55.907 21.17 57.247 21.17C58.591 21.17 59.71 22.289 59.71 23.633S58.591 26.095 57.247 26.095" fill="#ffffff" data-fill-palette-color="quaternary"></path><path d="M69.923 26.249C68.579 26.249 67.46 25.13 67.46 23.786S68.579 21.324 69.923 21.324 72.385 22.442 72.385 23.786 71.267 26.249 69.923 26.249" fill="#ffffff" data-fill-palette-color="quaternary"></path><path d="M69.785 71.527C68.697 71.091 68.194 69.8 68.632 68.711 69.091 67.57 70.325 67.043 71.416 67.481L73.525 68.331C74.566 68.749 75.147 70.005 74.691 71.149 74.253 72.233 72.941 72.799 71.847 72.358z" fill="#ffffff" data-fill-palette-color="quaternary"></path><path d="M23.251 32.699H28.288V37.68C28.288 38.852 29.294 39.861 30.47 39.861 31.7 39.861 32.651 38.852 32.651 37.736V32.699H37.695C38.87 32.699 39.823 31.749 39.823 30.517 39.823 29.342 38.87 28.332 37.695 28.332H32.65V23.292C32.65 22.117 31.7 21.16 30.469 21.16 29.293 21.16 28.287 22.117 28.287 23.292V28.332H23.306C22.131 28.332 21.121 29.342 21.121 30.517 21.122 31.749 22.132 32.699 23.251 32.699" fill="#ffffff" data-fill-palette-color="quaternary"></path></g></svg></g></svg></g></svg></g></svg></g><g></g></svg></g><defs></defs></svg><rect width="245.1518648703541" height="247.2" fill="none" stroke="none" visibility="hidden"></rect></g></svg></g></svg>